<svg width="140" height="165" viewBox="0 0 140 165" fill="none" xmlns="http://www.w3.org/2000/svg">
<path fill-rule="evenodd" clip-rule="evenodd" d="M134.265 9.70588C136.945 9.70588 139.118 7.53315 139.118 4.85294C139.118 2.17274 136.945 0 134.265 0C131.584 0 129.412 2.17274 129.412 4.85294C129.412 7.53315 131.584 9.70588 134.265 9.70588ZM134.265 35.5882C136.945 35.5882 139.118 33.4155 139.118 30.7353C139.118 28.0551 136.945 25.8823 134.265 25.8823C131.584 25.8823 129.412 28.0551 129.412 30.7353C129.412 33.4155 131.584 35.5882 134.265 35.5882ZM134.265 61.4705C136.945 61.4705 139.118 59.2978 139.118 56.6176C139.118 53.9374 136.945 51.7646 134.265 51.7646C131.584 51.7646 129.412 53.9374 129.412 56.6176C129.412 59.2978 131.584 61.4705 134.265 61.4705ZM134.265 87.353C136.945 87.353 139.118 85.1802 139.118 82.5C139.118 79.8198 136.945 77.6471 134.265 77.6471C131.584 77.6471 129.412 79.8198 129.412 82.5C129.412 85.1802 131.584 87.353 134.265 87.353ZM134.265 113.235C136.945 113.235 139.118 111.063 139.118 108.382C139.118 105.702 136.945 103.529 134.265 103.529C131.584 103.529 129.412 105.702 129.412 108.382C129.412 111.063 131.584 113.235 134.265 113.235ZM134.265 139.118C136.945 139.118 139.118 136.945 139.118 134.265C139.118 131.584 136.945 129.412 134.265 129.412C131.584 129.412 129.412 131.584 129.412 134.265C129.412 136.945 131.584 139.118 134.265 139.118ZM9.70588 160.147C9.70588 162.827 7.53315 165 4.85294 165C2.17274 165 0 162.827 0 160.147C0 157.467 2.17274 155.294 4.85294 155.294C7.53315 155.294 9.70588 157.467 9.70588 160.147ZM30.7353 165C33.4155 165 35.5882 162.827 35.5882 160.147C35.5882 157.467 33.4155 155.294 30.7353 155.294C28.0551 155.294 25.8823 157.467 25.8823 160.147C25.8823 162.827 28.0551 165 30.7353 165ZM61.4705 160.147C61.4705 162.827 59.2978 165 56.6176 165C53.9374 165 51.7646 162.827 51.7646 160.147C51.7646 157.467 53.9374 155.294 56.6176 155.294C59.2978 155.294 61.4705 157.467 61.4705 160.147ZM82.4999 165C85.1801 165 87.3529 162.827 87.3529 160.147C87.3529 157.467 85.1801 155.294 82.4999 155.294C79.8197 155.294 77.647 157.467 77.647 160.147C77.647 162.827 79.8197 165 82.4999 165ZM113.235 160.147C113.235 162.827 111.062 165 108.382 165C105.702 165 103.529 162.827 103.529 160.147C103.529 157.467 105.702 155.294 108.382 155.294C111.062 155.294 113.235 157.467 113.235 160.147ZM139.118 160.147C139.118 162.827 136.945 165 134.265 165C131.584 165 129.412 162.827 129.412 160.147C129.412 157.467 131.584 155.294 134.265 155.294C136.945 155.294 139.118 157.467 139.118 160.147ZM113.235 134.265C113.235 136.945 111.062 139.118 108.382 139.118C105.702 139.118 103.529 136.945 103.529 134.265C103.529 131.584 105.702 129.412 108.382 129.412C111.062 129.412 113.235 131.584 113.235 134.265ZM82.4999 139.118C85.1801 139.118 87.3529 136.945 87.3529 134.265C87.3529 131.584 85.1801 129.412 82.4999 129.412C79.8197 129.412 77.647 131.584 77.647 134.265C77.647 136.945 79.8197 139.118 82.4999 139.118ZM61.4705 134.265C61.4705 136.945 59.2978 139.118 56.6176 139.118C53.9374 139.118 51.7646 136.945 51.7646 134.265C51.7646 131.584 53.9374 129.412 56.6176 129.412C59.2978 129.412 61.4705 131.584 61.4705 134.265ZM30.7353 139.118C33.4155 139.118 35.5882 136.945 35.5882 134.265C35.5882 131.584 33.4155 129.412 30.7353 129.412C28.0551 129.412 25.8823 131.584 25.8823 134.265C25.8823 136.945 28.0551 139.118 30.7353 139.118ZM9.70588 134.265C9.70588 136.945 7.53315 139.118 4.85294 139.118C2.17274 139.118 0 136.945 0 134.265C0 131.584 2.17274 129.412 4.85294 129.412C7.53315 129.412 9.70588 131.584 9.70588 134.265ZM113.235 108.382C113.235 111.063 111.062 113.235 108.382 113.235C105.702 113.235 103.529 111.063 103.529 108.382C103.529 105.702 105.702 103.529 108.382 103.529C111.062 103.529 113.235 105.702 113.235 108.382ZM82.4999 113.235C85.1801 113.235 87.3529 111.063 87.3529 108.382C87.3529 105.702 85.1801 103.529 82.4999 103.529C79.8197 103.529 77.647 105.702 77.647 108.382C77.647 111.063 79.8197 113.235 82.4999 113.235ZM61.4705 108.382C61.4705 111.063 59.2978 113.235 56.6176 113.235C53.9374 113.235 51.7646 111.063 51.7646 108.382C51.7646 105.702 53.9374 103.529 56.6176 103.529C59.2978 103.529 61.4705 105.702 61.4705 108.382ZM30.7353 113.235C33.4155 113.235 35.5882 111.063 35.5882 108.382C35.5882 105.702 33.4155 103.529 30.7353 103.529C28.0551 103.529 25.8823 105.702 25.8823 108.382C25.8823 111.063 28.0551 113.235 30.7353 113.235ZM9.70588 108.382C9.70588 111.063 7.53315 113.235 4.85294 113.235C2.17274 113.235 0 111.063 0 108.382C0 105.702 2.17274 103.529 4.85294 103.529C7.53315 103.529 9.70588 105.702 9.70588 108.382ZM113.235 82.5C113.235 85.1802 111.062 87.353 108.382 87.353C105.702 87.353 103.529 85.1802 103.529 82.5C103.529 79.8198 105.702 77.6471 108.382 77.6471C111.062 77.6471 113.235 79.8198 113.235 82.5ZM82.4999 87.353C85.1801 87.353 87.3529 85.1802 87.3529 82.5C87.3529 79.8198 85.1801 77.6471 82.4999 77.6471C79.8197 77.6471 77.647 79.8198 77.647 82.5C77.647 85.1802 79.8197 87.353 82.4999 87.353ZM61.4705 82.5C61.4705 85.1802 59.2978 87.353 56.6176 87.353C53.9374 87.353 51.7646 85.1802 51.7646 82.5C51.7646 79.8198 53.9374 77.6471 56.6176 77.6471C59.2978 77.6471 61.4705 79.8198 61.4705 82.5ZM30.7353 87.353C33.4155 87.353 35.5882 85.1802 35.5882 82.5C35.5882 79.8198 33.4155 77.6471 30.7353 77.6471C28.0551 77.6471 25.8823 79.8198 25.8823 82.5C25.8823 85.1802 28.0551 87.353 30.7353 87.353ZM9.70588 82.5C9.70588 85.1802 7.53315 87.353 4.85294 87.353C2.17274 87.353 0 85.1802 0 82.5C0 79.8198 2.17274 77.6471 4.85294 77.6471C7.53315 77.6471 9.70588 79.8198 9.70588 82.5ZM113.235 56.6176C113.235 59.2978 111.062 61.4705 108.382 61.4705C105.702 61.4705 103.529 59.2978 103.529 56.6176C103.529 53.9374 105.702 51.7646 108.382 51.7646C111.062 51.7646 113.235 53.9374 113.235 56.6176ZM82.4999 61.4705C85.1801 61.4705 87.3529 59.2978 87.3529 56.6176C87.3529 53.9374 85.1801 51.7646 82.4999 51.7646C79.8197 51.7646 77.647 53.9374 77.647 56.6176C77.647 59.2978 79.8197 61.4705 82.4999 61.4705ZM61.4705 56.6176C61.4705 59.2978 59.2978 61.4705 56.6176 61.4705C53.9374 61.4705 51.7646 59.2978 51.7646 56.6176C51.7646 53.9374 53.9374 51.7646 56.6176 51.7646C59.2978 51.7646 61.4705 53.9374 61.4705 56.6176ZM30.7353 61.4705C33.4155 61.4705 35.5882 59.2978 35.5882 56.6176C35.5882 53.9374 33.4155 51.7646 30.7353 51.7646C28.0551 51.7646 25.8823 53.9374 25.8823 56.6176C25.8823 59.2978 28.0551 61.4705 30.7353 61.4705ZM9.70588 56.6176C9.70588 59.2978 7.53315 61.4705 4.85294 61.4705C2.17274 61.4705 0 59.2978 0 56.6176C0 53.9374 2.17274 51.7646 4.85294 51.7646C7.53315 51.7646 9.70588 53.9374 9.70588 56.6176ZM113.235 30.7353C113.235 33.4155 111.062 35.5882 108.382 35.5882C105.702 35.5882 103.529 33.4155 103.529 30.7353C103.529 28.0551 105.702 25.8823 108.382 25.8823C111.062 25.8823 113.235 28.0551 113.235 30.7353ZM82.4999 35.5882C85.1801 35.5882 87.3529 33.4155 87.3529 30.7353C87.3529 28.0551 85.1801 25.8823 82.4999 25.8823C79.8197 25.8823 77.647 28.0551 77.647 30.7353C77.647 33.4155 79.8197 35.5882 82.4999 35.5882ZM61.4705 30.7353C61.4705 33.4155 59.2978 35.5882 56.6176 35.5882C53.9374 35.5882 51.7646 33.4155 51.7646 30.7353C51.7646 28.0551 53.9374 25.8823 56.6176 25.8823C59.2978 25.8823 61.4705 28.0551 61.4705 30.7353ZM30.7353 35.5882C33.4155 35.5882 35.5882 33.4155 35.5882 30.7353C35.5882 28.0551 33.4155 25.8823 30.7353 25.8823C28.0551 25.8823 25.8823 28.0551 25.8823 30.7353C25.8823 33.4155 28.0551 35.5882 30.7353 35.5882ZM9.70588 30.7353C9.70588 33.4155 7.53315 35.5882 4.85294 35.5882C2.17274 35.5882 0 33.4155 0 30.7353C0 28.0551 2.17274 25.8823 4.85294 25.8823C7.53315 25.8823 9.70588 28.0551 9.70588 30.7353ZM113.235 4.85294C113.235 7.53315 111.062 9.70588 108.382 9.70588C105.702 9.70588 103.529 7.53315 103.529 4.85294C103.529 2.17274 105.702 0 108.382 0C111.062 0 113.235 2.17274 113.235 4.85294ZM82.4999 9.70588C85.1801 9.70588 87.3529 7.53315 87.3529 4.85294C87.3529 2.17274 85.1801 0 82.4999 0C79.8197 0 77.647 2.17274 77.647 4.85294C77.647 7.53315 79.8197 9.70588 82.4999 9.70588ZM61.4705 4.85294C61.4705 7.53315 59.2978 9.70588 56.6176 9.70588C53.9374 9.70588 51.7646 7.53315 51.7646 4.85294C51.7646 2.17274 53.9374 0 56.6176 0C59.2978 0 61.4705 2.17274 61.4705 4.85294ZM30.7353 9.70588C33.4155 9.70588 35.5882 7.53315 35.5882 4.85294C35.5882 2.17274 33.4155 0 30.7353 0C28.0551 0 25.8823 2.17274 25.8823 4.85294C25.8823 7.53315 28.0551 9.70588 30.7353 9.70588ZM9.70588 4.85294C9.70588 7.53315 7.53315 9.70588 4.85294 9.70588C2.17274 9.70588 0 7.53315 0 4.85294C0 2.17274 2.17274 0 4.85294 0C7.53315 0 9.70588 2.17274 9.70588 4.85294Z" fill="#0984E3" fill-opacity="0.2"/>
</svg>
