<svg width="65" height="69" viewBox="0 0 65 69" fill="none" xmlns="http://www.w3.org/2000/svg">
<path d="M43.9077 22.9611C43.7235 23.0471 41.5748 22.9734 40.6662 23.2312C39.7699 23.4891 34.6007 25.0607 33.7166 25.5887C33.4097 25.7237 30.7944 28.1917 29.6402 29.616C29.4806 29.7511 27.3073 31.9366 27.0863 32.3664C26.8776 32.8084 24.7534 36.9953 24.4465 39.5738C24.3605 40.1754 24.3973 41.4278 24.3605 41.7348C24.3114 42.0295 23.8448 42.6434 23.1327 41.9681C22.4205 41.2928 21.426 40.2982 20.898 38.5178C20.37 36.7375 18.3441 30.3159 18.2336 29.9352C18.1231 29.5546 15.6551 21.5368 15.6551 21.3404C15.6551 21.1316 14.9798 17.8165 13.1012 15.5695C12.34 14.6609 11.3209 13.4822 10.3631 12.3894C8.95112 10.7932 7.68645 9.36892 7.53911 9.25842C7.45316 9.19702 7.17075 8.85323 6.79012 8.38665C6.01658 7.42893 4.89925 5.91869 4.56773 5.07148C4.06432 3.81909 3.13116 2.06327 3.09432 1.96505C3.06977 1.86682 2.57863 1.09328 2.93471 0.909105C2.93471 0.909105 3.43812 0.479361 3.97837 0.786321C4.51862 1.09328 8.37404 3.22972 8.66872 3.37706C8.85289 3.46301 9.76149 4.16288 10.6701 4.92414C11.2103 5.37844 11.7506 5.8573 12.1312 6.26249C12.6224 6.77818 13.6046 7.72362 14.6237 8.66905C15.7042 9.6636 16.8461 10.6336 17.5214 11.0388C18.8107 11.8123 20.677 13.0402 23.7589 14.1452C26.8407 15.2257 31.7521 16.7605 33.5693 17.4604C35.3865 18.1725 41.2924 19.8424 42.3484 20.751C43.4043 21.6596 44.362 22.2981 43.9077 22.9611Z" fill="#007F5F"/>
<path d="M64.1916 68.145L42.2624 45.872L38.5052 42.0657L29.7998 33.2376L34.9445 28.1543L42.2992 38.2103L45.553 42.6551L64.1916 68.145Z" fill="#007F5F"/>
<path d="M48.8314 37.7684L51.7291 47.9471L47.0019 40.7643L43.785 35.902C45.0374 33.6796 45.8846 31.2117 46.2161 28.5964C46.3511 27.7001 46.4125 26.7915 46.4125 25.8706C46.4125 14.5131 37.216 5.31655 25.8585 5.31655C22.924 5.31655 20.1368 5.93047 17.6074 7.06008L13.1135 3.36428C16.883 1.21556 21.2295 0 25.8585 0C40.1506 0 51.7291 11.5785 51.7291 25.8706C51.7414 30.168 50.6977 34.2199 48.8314 37.7684Z" fill="#1E1E1E"/>
<path d="M52.8094 60.643L38.0385 48.6961C34.4163 50.6238 30.2662 51.7289 25.8706 51.7289C11.5785 51.7289 0 40.1503 0 25.8583C0 20.0383 1.91543 14.6604 5.16921 10.3384L8.49665 14.8937C6.49527 18.0615 5.32882 21.831 5.32882 25.846C5.32882 37.1912 14.5253 46.3878 25.8706 46.3878C28.535 46.3878 31.1012 45.8843 33.4341 44.9389C34.7356 44.4355 35.9634 43.7847 37.1176 43.0357L40.6906 47.0262L52.8094 60.643Z" fill="#1E1E1E"/>
</svg>
