<svg width="141" height="21" viewBox="0 0 141 21" fill="none" xmlns="http://www.w3.org/2000/svg">
<path d="M7.87002 13.5373H4.93286V20.5298H0.19165V1.05811H7.87002C12.641 1.05811 15.0266 3.7418 15.0266 7.32007C15.0266 10.5405 12.8349 13.5373 7.87002 13.5373ZM7.51219 9.76522C9.39078 9.76522 10.1959 8.82592 10.1959 7.32007C10.1959 5.82913 9.39078 4.87492 7.51219 4.87492H4.93286V9.75032H7.51219V9.76522Z" fill="#1E1E1E"/>
<path d="M23.3756 4.83057C25.6717 4.83057 27.3117 5.88914 28.1467 7.2459V5.05421H32.8879V20.5302H28.1467V18.3385C27.2819 19.6953 25.6568 20.7539 23.3458 20.7539C19.5737 20.7539 16.5471 17.6527 16.5471 12.7624C16.5471 7.87209 19.5737 4.83057 23.3756 4.83057ZM24.7622 8.96048C22.988 8.96048 21.3778 10.2874 21.3778 12.7624C21.3778 15.2374 22.988 16.609 24.7622 16.609C26.5663 16.609 28.1467 15.2523 28.1467 12.7773C28.1467 10.3023 26.5663 8.96048 24.7622 8.96048Z" fill="#1E1E1E"/>
<path d="M43.1458 4.83057C47.0222 4.83057 49.7805 6.96261 50.5707 10.6602H45.5164C45.1287 9.57177 44.3534 8.88594 43.0414 8.88594C41.3566 8.88594 40.1788 10.2129 40.1788 12.7922C40.1788 15.3715 41.3417 16.6985 43.0414 16.6985C44.3385 16.6985 45.0989 16.0574 45.5164 14.9243H50.5707C49.7656 18.5025 47.0222 20.7539 43.1458 20.7539C38.5984 20.7539 35.3779 17.6974 35.3779 12.7922C35.3928 7.90191 38.5984 4.83057 43.1458 4.83057Z" fill="#1E1E1E"/>
<path d="M53.1052 0H57.8464V11.3461L62.528 5.05431H68.3725L61.9316 12.8221L68.4172 20.5303H62.5429L57.8315 14.0447V20.5303H53.0903V0H53.1052Z" fill="#1E1E1E"/>
<path d="M85.4736 5.76967C85.5034 4.7111 84.8623 4.21908 84.0273 4.21908C83.1477 4.21908 82.4768 4.77073 82.4768 5.60566C82.4768 6.41077 82.9986 7.21588 84.0273 8.28936L88.7686 12.9262C88.8729 12.6727 89.022 12.4342 89.1264 12.1509L90.1551 10.4065H94.8963L93.5694 12.8218C93.0476 13.9848 92.4661 15.0135 91.8548 15.923L96.5364 20.53H91.0199L89.2158 18.7856C87.4416 20.1424 85.3394 20.8431 82.775 20.8431C78.2574 20.8431 75.3948 18.4874 75.3948 14.8793C75.3948 12.4938 76.677 10.4214 79.3607 9.1392C78.3618 7.94645 78.0039 6.88788 78.0039 5.65039C78.0039 2.90705 80.1956 0.685547 84.0721 0.685547C88.038 0.685547 90.006 3.10088 89.9166 5.78458H85.4736V5.76967ZM86.3085 15.9528L81.9848 11.7633C80.6578 12.4491 79.9869 13.4331 79.9869 14.5364C79.9869 15.8932 81.12 17.0114 83.0135 17.0114C84.2808 16.9965 85.3692 16.6387 86.3085 15.9528Z" fill="#1E1E1E"/>
<path d="M122.3 7.2162H117.052C116.336 5.91908 114.995 5.21834 113.22 5.21834C110.164 5.21834 108.151 7.38022 108.151 10.7647C108.151 14.3727 110.209 16.475 113.608 16.475C115.964 16.475 117.604 15.2226 118.319 13.0309H112.296V9.54208H122.613V13.9553C121.614 17.3099 118.364 20.6645 113.235 20.6645C107.406 20.6645 103.306 16.5943 103.306 10.7647C103.306 4.93507 107.376 0.834961 113.205 0.834961C117.902 0.834961 121.286 3.22047 122.3 7.2162Z" fill="#1E1E1E"/>
<path d="M132.319 20.7392C127.772 20.7392 124.328 17.6828 124.328 12.7776C124.328 7.87236 127.846 4.81592 132.364 4.81592C136.911 4.81592 140.4 7.87236 140.4 12.7776C140.4 17.6828 136.867 20.7392 132.319 20.7392ZM132.319 16.6391C134.004 16.6391 135.584 15.3867 135.584 12.7925C135.584 10.1535 134.034 8.93093 132.364 8.93093C130.649 8.93093 129.144 10.1535 129.144 12.7925C129.158 15.3867 130.605 16.6391 132.319 16.6391Z" fill="#1E1E1E"/>
</svg>
