<svg width="74" height="78" viewBox="0 0 74 78" fill="none" xmlns="http://www.w3.org/2000/svg">
<rect width="74" height="78" rx="14" fill="#007F5F" fill-opacity="0.1"/>
<path d="M52.694 44.2837C51.4934 45.4152 50.0182 46.2506 48.3779 46.6869C49.9153 49.122 50.9653 51.9067 51.3533 54.9192C51.4277 55.5009 51.3203 56.0653 51.0727 56.5769H59.5121C59.7823 56.5769 60.0462 56.4532 60.2341 56.2384C60.4141 56.034 60.4999 55.7728 60.4679 55.5234C59.8451 50.6739 56.7964 46.5336 52.694 44.2837Z" fill="#007F5F"/>
<path d="M42.9612 40.9587C43.2988 41.1985 43.6235 41.4548 43.9445 41.7144C44.2675 41.9758 44.5869 42.2408 44.8924 42.5213C45.7624 43.3161 46.5632 44.1851 47.2861 45.1208C48.6521 44.8716 49.902 44.2889 50.9478 43.4579C51.2109 43.2485 51.4627 43.0277 51.6983 42.7896C51.919 42.5663 52.1233 42.3274 52.3173 42.0815C53.4305 40.6669 54.1004 38.8899 54.1004 36.9551C54.1004 32.3749 50.3737 28.6482 45.7936 28.6482C44.831 28.6482 43.9099 28.8209 43.0494 29.1242C43.3499 30.1825 43.5211 31.2949 43.5211 32.4484C43.5211 35.1951 42.5992 37.725 41.0627 39.7675C41.7172 40.1328 42.3526 40.5251 42.9612 40.9587Z" fill="#007F5F"/>
<path d="M30.5274 56.5769H32.0788H48.2107C48.6324 56.5769 49.028 56.4012 49.2971 56.0964C49.5336 55.829 49.6391 55.4905 49.5932 55.1451C49.207 52.13 48.0947 49.3669 46.4638 47.0019C46.263 46.7118 46.0595 46.4245 45.844 46.1466C45.5964 45.8297 45.3333 45.5267 45.0674 45.2254C44.3039 44.3649 43.4661 43.5765 42.5596 42.8717C42.2498 42.6302 41.9303 42.4017 41.6048 42.181C41.2871 41.9653 40.9693 41.7524 40.6386 41.5568C40.3911 41.4096 40.1358 41.2746 39.8804 41.1387C39.6302 41.3872 39.3696 41.6244 39.0978 41.8512C38.8701 42.0399 38.6303 42.213 38.3889 42.3861C38.1498 42.5574 37.9023 42.7177 37.6503 42.8708C37.5301 42.9445 37.4125 43.0215 37.2885 43.0906C37.2513 43.1116 37.2167 43.1365 37.1795 43.1565C35.4343 44.1191 33.432 44.6696 31.302 44.6696C27.9601 44.6696 24.9304 43.3183 22.722 41.1377C17.5649 43.8776 13.7984 48.9978 13.0101 55.1389C12.9651 55.4868 13.0715 55.8263 13.3097 56.0972C13.5775 56.4009 13.9728 56.5766 14.3922 56.5766H29.5451H30.5274V56.5769Z" fill="#007F5F"/>
<path d="M23.7702 39.6689C23.9892 39.8965 24.2186 40.1138 24.4572 40.3215C26.2928 41.9195 28.6828 42.8951 31.3024 42.8951C33.2951 42.8951 35.1528 42.3237 36.7396 41.3517C36.9938 41.195 37.2404 41.0298 37.4793 40.8539C37.7097 40.6842 37.9328 40.5085 38.1468 40.3216C38.1615 40.3087 38.1753 40.2947 38.19 40.2826C38.4126 40.0871 38.6281 39.8834 38.8333 39.6689C39.0505 39.442 39.2591 39.2083 39.4556 38.9625C40.8874 37.1744 41.7496 34.9115 41.7496 32.4471C41.7496 31.5689 41.6293 30.7205 41.4233 29.9042C41.3479 29.6055 41.2622 29.3122 41.1617 29.0238C41.0631 28.7413 40.9549 28.4629 40.8338 28.1907C39.2003 24.5476 35.5468 22 31.3024 22C25.5423 22 20.8556 26.6867 20.8556 32.4472C20.8556 34.911 21.7174 37.1737 23.1488 38.9618C23.3447 39.2083 23.553 39.442 23.7702 39.6689Z" fill="#007F5F"/>
</svg>
