<svg width="18" height="16" viewBox="0 0 18 16" fill="none" xmlns="http://www.w3.org/2000/svg">
<path d="M2.14646 2.14646C1.78299 2.50993 1.49467 2.94144 1.29796 3.41633C1.10125 3.89123 1 4.40022 1 4.91425C1 5.42828 1.10125 5.93727 1.29796 6.41217C1.49467 6.88706 1.78299 7.31857 2.14646 7.68204L8.82847 14.364L15.5105 7.68204C16.2445 6.94797 16.6569 5.95237 16.6569 4.91425C16.6569 3.87613 16.2445 2.88053 15.5105 2.14646C14.7764 1.4124 13.7808 1.00001 12.7427 1.00001C11.7046 1.00001 10.709 1.4124 9.9749 2.14646L8.82847 3.2929L7.68204 2.14646C7.31857 1.78299 6.88706 1.49467 6.41217 1.29796C5.93727 1.10125 5.42828 1 4.91425 1C4.40022 1 3.89123 1.10125 3.41633 1.29796C2.94144 1.49467 2.50993 1.78299 2.14646 2.14646V2.14646Z" stroke="#FF5A5F" stroke-width="1.5" stroke-linecap="round" stroke-linejoin="round"/>
</svg>
