<svg width="104" height="16" viewBox="0 0 104 16" fill="none" xmlns="http://www.w3.org/2000/svg">
<g clip-path="url(#clip0_41_252)">
<path d="M15.9582 6.1376C15.8535 5.81362 15.5661 5.58351 15.2262 5.55287L10.6081 5.13355L8.78202 0.859388C8.64737 0.546148 8.34072 0.343384 8.00002 0.343384C7.65931 0.343384 7.35266 0.546148 7.21802 0.860121L5.39192 5.13355L0.77315 5.55287C0.433786 5.58424 0.147157 5.81362 0.0418081 6.1376C-0.0635412 6.46158 0.0337513 6.81694 0.290472 7.04094L3.78116 10.1023L2.75184 14.6365C2.67652 14.9699 2.80592 15.3145 3.08253 15.5144C3.23122 15.6219 3.40517 15.6765 3.58059 15.6765C3.73184 15.6765 3.88187 15.6358 4.01652 15.5552L8.00002 13.1744L11.9821 15.5552C12.2734 15.7305 12.6408 15.7145 12.9168 15.5144C13.1935 15.3139 13.3228 14.9691 13.2475 14.6365L12.2181 10.1023L15.7088 7.04155C15.9656 6.81694 16.0636 6.46219 15.9582 6.1376Z" fill="#FF8B00"/>
</g>
<g clip-path="url(#clip1_41_252)">
<path d="M37.9582 6.1376C37.8535 5.81362 37.5661 5.58351 37.2262 5.55287L32.6081 5.13355L30.782 0.859388C30.6474 0.546148 30.3407 0.343384 30 0.343384C29.6593 0.343384 29.3527 0.546148 29.218 0.860121L27.3919 5.13355L22.7731 5.55287C22.4338 5.58424 22.1472 5.81362 22.0418 6.1376C21.9365 6.46158 22.0338 6.81694 22.2905 7.04094L25.7812 10.1023L24.7518 14.6365C24.6765 14.9699 24.8059 15.3145 25.0825 15.5144C25.2312 15.6219 25.4052 15.6765 25.5806 15.6765C25.7318 15.6765 25.8819 15.6358 26.0165 15.5552L30 13.1744L33.9821 15.5552C34.2734 15.7305 34.6408 15.7145 34.9168 15.5144C35.1935 15.3139 35.3228 14.9691 35.2475 14.6365L34.2181 10.1023L37.7088 7.04155C37.9656 6.81694 38.0636 6.46219 37.9582 6.1376Z" fill="#E0E0E0"/>
</g>
<g clip-path="url(#clip2_41_252)">
<path d="M59.9582 6.1376C59.8535 5.81362 59.5661 5.58351 59.2262 5.55287L54.6081 5.13355L52.782 0.859388C52.6474 0.546148 52.3407 0.343384 52 0.343384C51.6593 0.343384 51.3527 0.546148 51.218 0.860121L49.3919 5.13355L44.7731 5.55287C44.4338 5.58424 44.1472 5.81362 44.0418 6.1376C43.9365 6.46158 44.0338 6.81694 44.2905 7.04094L47.7812 10.1023L46.7518 14.6365C46.6765 14.9699 46.8059 15.3145 47.0825 15.5144C47.2312 15.6219 47.4052 15.6765 47.5806 15.6765C47.7318 15.6765 47.8819 15.6358 48.0165 15.5552L52 13.1744L55.9821 15.5552C56.2734 15.7305 56.6408 15.7145 56.9168 15.5144C57.1935 15.3139 57.3228 14.9691 57.2475 14.6365L56.2181 10.1023L59.7088 7.04155C59.9656 6.81694 60.0636 6.46219 59.9582 6.1376Z" fill="#E0E0E0"/>
</g>
<g clip-path="url(#clip3_41_252)">
<path d="M81.9582 6.1376C81.8535 5.81362 81.5661 5.58351 81.2262 5.55287L76.6081 5.13355L74.782 0.859388C74.6474 0.546148 74.3407 0.343384 74 0.343384C73.6593 0.343384 73.3527 0.546148 73.218 0.860121L71.3919 5.13355L66.7731 5.55287C66.4338 5.58424 66.1472 5.81362 66.0418 6.1376C65.9365 6.46158 66.0338 6.81694 66.2905 7.04094L69.7812 10.1023L68.7518 14.6365C68.6765 14.9699 68.8059 15.3145 69.0825 15.5144C69.2312 15.6219 69.4052 15.6765 69.5806 15.6765C69.7318 15.6765 69.8819 15.6358 70.0165 15.5552L74 13.1744L77.9821 15.5552C78.2734 15.7305 78.6408 15.7145 78.9168 15.5144C79.1935 15.3139 79.3228 14.9691 79.2475 14.6365L78.2181 10.1023L81.7088 7.04155C81.9656 6.81694 82.0636 6.46219 81.9582 6.1376Z" fill="#E0E0E0"/>
</g>
<g clip-path="url(#clip4_41_252)">
<path d="M103.958 6.1376C103.853 5.81362 103.566 5.58351 103.226 5.55287L98.6081 5.13355L96.782 0.859388C96.6474 0.546148 96.3407 0.343384 96 0.343384C95.6593 0.343384 95.3527 0.546148 95.218 0.860121L93.3919 5.13355L88.7731 5.55287C88.4338 5.58424 88.1472 5.81362 88.0418 6.1376C87.9365 6.46158 88.0338 6.81694 88.2905 7.04094L91.7812 10.1023L90.7518 14.6365C90.6765 14.9699 90.8059 15.3145 91.0825 15.5144C91.2312 15.6219 91.4052 15.6765 91.5806 15.6765C91.7318 15.6765 91.8819 15.6358 92.0165 15.5552L96 13.1744L99.9821 15.5552C100.273 15.7305 100.641 15.7145 100.917 15.5144C101.194 15.3139 101.323 14.9691 101.247 14.6365L100.218 10.1023L103.709 7.04155C103.966 6.81694 104.064 6.46219 103.958 6.1376Z" fill="#E0E0E0"/>
</g>
<defs>
<clipPath id="clip0_41_252">
<rect width="16" height="16" fill="white"/>
</clipPath>
<clipPath id="clip1_41_252">
<rect width="16" height="16" fill="white" transform="translate(22)"/>
</clipPath>
<clipPath id="clip2_41_252">
<rect width="16" height="16" fill="white" transform="translate(44)"/>
</clipPath>
<clipPath id="clip3_41_252">
<rect width="16" height="16" fill="white" transform="translate(66)"/>
</clipPath>
<clipPath id="clip4_41_252">
<rect width="16" height="16" fill="white" transform="translate(88)"/>
</clipPath>
</defs>
</svg>
