<svg width="312" height="48" viewBox="0 0 312 48" fill="none" xmlns="http://www.w3.org/2000/svg">
<g clip-path="url(#clip0_41_73)">
<path d="M48 24C48 10.7452 37.2548 0 24 0C10.7452 0 0 10.7452 0 24C0 35.9789 8.77641 45.908 20.25 47.7084V30.9375H14.1562V24H20.25V18.7125C20.25 12.6975 23.8331 9.375 29.3152 9.375C31.9402 9.375 34.6875 9.84375 34.6875 9.84375V15.75H31.6613C28.68 15.75 27.75 17.6002 27.75 19.5V24H34.4062L33.3422 30.9375H27.75V47.7084C39.2236 45.908 48 35.9789 48 24Z" fill="#1877F2"/>
<path d="M33.3422 30.9375L34.4062 24H27.75V19.5C27.75 17.602 28.68 15.75 31.6613 15.75H34.6875V9.84375C34.6875 9.84375 31.9411 9.375 29.3152 9.375C23.8331 9.375 20.25 12.6975 20.25 18.7125V24H14.1562V30.9375H20.25V47.7084C22.7349 48.0972 25.2651 48.0972 27.75 47.7084V30.9375H33.3422Z" fill="white"/>
</g>
<path d="M103.095 43.5015C121.208 43.5015 131.116 28.4948 131.116 15.481C131.116 15.0548 131.116 14.6305 131.087 14.2081C133.014 12.814 134.678 11.0878 136 9.11048C134.203 9.90728 132.296 10.4296 130.344 10.6599C132.4 9.4293 133.938 7.49349 134.673 5.21288C132.74 6.3601 130.625 7.16853 128.42 7.60328C126.935 6.02443 124.971 4.97896 122.832 4.62865C120.694 4.27834 118.499 4.64271 116.588 5.66539C114.677 6.68806 113.156 8.31203 112.261 10.286C111.367 12.2599 111.147 14.4738 111.637 16.585C107.722 16.3886 103.892 15.3711 100.395 13.5985C96.8983 11.8259 93.8135 9.3378 91.3408 6.29576C90.0815 8.46375 89.6957 11.0302 90.2622 13.4726C90.8287 15.915 92.3047 18.0497 94.3898 19.442C92.8225 19.3961 91.2893 18.9733 89.92 18.2094V18.3342C89.9206 20.6079 90.7077 22.8114 92.1477 24.5709C93.5878 26.3304 95.5921 27.5377 97.8208 27.9879C96.371 28.3834 94.8497 28.4412 93.3741 28.1569C94.0036 30.1135 95.2289 31.8246 96.8785 33.0508C98.5281 34.277 100.52 34.957 102.575 34.9959C100.533 36.6009 98.1946 37.7875 95.6937 38.4879C93.1929 39.1883 90.5784 39.3888 88 39.0778C92.5037 41.9679 97.7438 43.5009 103.095 43.4938" fill="#1DA1F2"/>
<g clip-path="url(#clip1_41_73)">
<path d="M220.457 0H179.543C178.604 0 177.702 0.373315 177.038 1.03782C176.373 1.70232 176 2.60358 176 3.54333V44.4567C176 45.3964 176.373 46.2977 177.038 46.9622C177.702 47.6267 178.604 48 179.543 48H220.457C221.396 48 222.298 47.6267 222.962 46.9622C223.627 46.2977 224 45.3964 224 44.4567V3.54333C224 2.60358 223.627 1.70232 222.962 1.03782C222.298 0.373315 221.396 0 220.457 0ZM190.307 40.89H183.09V17.9667H190.307V40.89ZM186.693 14.79C185.875 14.7854 185.076 14.5384 184.397 14.0802C183.719 13.622 183.192 12.9731 182.882 12.2154C182.572 11.4577 182.493 10.6252 182.656 9.82291C182.819 9.02063 183.216 8.28455 183.796 7.70756C184.377 7.13057 185.116 6.73853 185.919 6.58092C186.722 6.42331 187.554 6.50719 188.31 6.82197C189.066 7.13675 189.711 7.66833 190.165 8.34962C190.619 9.03092 190.861 9.83138 190.86 10.65C190.868 11.1981 190.765 11.7421 190.558 12.2496C190.351 12.7571 190.044 13.2178 189.655 13.6041C189.266 13.9905 188.804 14.2946 188.295 14.4983C187.786 14.702 187.241 14.8012 186.693 14.79ZM216.907 40.91H209.693V28.3867C209.693 24.6933 208.123 23.5533 206.097 23.5533C203.957 23.5533 201.857 25.1667 201.857 28.48V40.91H194.64V17.9833H201.58V21.16H201.673C202.37 19.75 204.81 17.34 208.533 17.34C212.56 17.34 216.91 19.73 216.91 26.73L216.907 40.91Z" fill="#0A66C2"/>
</g>
<g clip-path="url(#clip2_41_73)">
<path d="M288 48C301.255 48 312 37.2548 312 24C312 10.7452 301.255 0 288 0C274.745 0 264 10.7452 264 24C264 37.2548 274.745 48 288 48Z" fill="white"/>
<path d="M288 0C274.746 0 264 10.7457 264 24C264 34.1728 270.321 42.8642 279.249 46.3605C279.032 44.4642 278.854 41.5407 279.328 39.4667C279.763 37.5901 282.133 27.5358 282.133 27.5358C282.133 27.5358 281.422 26.0938 281.422 23.9802C281.422 20.642 283.358 18.1531 285.768 18.1531C287.822 18.1531 288.81 19.6938 288.81 21.5309C288.81 23.5852 287.506 26.6667 286.815 29.5309C286.242 31.921 288.02 33.8765 290.37 33.8765C294.637 33.8765 297.916 29.3728 297.916 22.8938C297.916 17.1457 293.788 13.1358 287.881 13.1358C281.047 13.1358 277.037 18.2519 277.037 23.5457C277.037 25.6 277.827 27.8123 278.815 29.0173C279.012 29.2543 279.032 29.4716 278.973 29.7086C278.795 30.4593 278.38 32.0988 278.301 32.4346C278.202 32.8691 277.946 32.9679 277.491 32.7506C274.489 31.3481 272.612 26.9827 272.612 23.4469C272.612 15.8815 278.104 8.9284 288.474 8.9284C296.79 8.9284 303.269 14.8543 303.269 22.7951C303.269 31.0716 298.054 37.7284 290.825 37.7284C288.395 37.7284 286.104 36.4642 285.333 34.963C285.333 34.963 284.128 39.5457 283.832 40.6716C283.299 42.7654 281.837 45.3728 280.849 46.9728C283.101 47.6642 285.472 48.0395 287.96 48.0395C301.215 48.0395 311.96 37.2938 311.96 24.0395C312 10.7457 301.254 0 288 0Z" fill="#E60019"/>
</g>
<defs>
<clipPath id="clip0_41_73">
<rect width="48" height="48" fill="white"/>
</clipPath>
<clipPath id="clip1_41_73">
<rect width="48" height="48" fill="white" transform="translate(176)"/>
</clipPath>
<clipPath id="clip2_41_73">
<rect width="48" height="48" fill="white" transform="translate(264)"/>
</clipPath>
</defs>
</svg>
