<svg width="74" height="78" viewBox="0 0 74 78" fill="none" xmlns="http://www.w3.org/2000/svg">
<rect width="74" height="78" rx="14" fill="white"/>
<g clip-path="url(#clip0_41_310)">
<path d="M37.2253 22C32.2165 22 28.1416 26.0749 28.1416 31.0837C28.1416 36.0924 32.2165 40.1674 37.2253 40.1674C42.234 40.1674 46.309 36.0924 46.309 31.0837C46.309 26.0749 42.234 22 37.2253 22Z" fill="#007F5F"/>
<path d="M48.5271 46.1018C46.0402 43.5766 42.7434 42.186 39.2439 42.186H35.2067C31.7072 42.186 28.4103 43.5766 25.9234 46.1018C23.4487 48.6145 22.0858 51.9313 22.0858 55.4415C22.0858 55.9989 22.5377 56.4508 23.0951 56.4508H51.3554C51.9128 56.4508 52.3647 55.9989 52.3647 55.4415C52.3647 51.9313 51.0018 48.6145 48.5271 46.1018Z" fill="#007F5F"/>
</g>
<defs>
<clipPath id="clip0_41_310">
<rect width="34.4507" height="34.4507" fill="white" transform="translate(20 22)"/>
</clipPath>
</defs>
</svg>
