<svg width="74" height="78" viewBox="0 0 74 78" fill="none" xmlns="http://www.w3.org/2000/svg">
<rect width="74" height="78" rx="14" fill="#007F5F" fill-opacity="0.1"/>
<g clip-path="url(#clip0_41_330)">
<path d="M37.2254 42.1858C41.1206 42.1858 44.2904 39.016 44.2904 35.1207C44.2904 31.2255 41.1206 28.0557 37.2254 28.0557C33.3301 28.0557 30.1603 31.2255 30.1603 35.1207C30.1603 39.016 33.3301 42.1858 37.2254 42.1858ZM33.9018 34.4071L36.2161 36.7214L40.5489 32.3885L41.9762 33.8158L36.2161 39.5758L32.4746 35.8344L33.9018 34.4071Z" fill="#007F5F"/>
<path d="M37.2254 56.4507L47.7155 43.0021L47.7273 42.9873C49.4405 40.7046 50.3462 37.9842 50.3462 35.1209C50.3462 27.8863 44.46 22 37.2254 22C29.9907 22 24.1045 27.8863 24.1045 35.1209C24.1045 37.9842 25.0102 40.7046 26.7352 43.0021L37.2254 56.4507ZM37.2254 26.0372C42.2343 26.0372 46.309 30.112 46.309 35.1209C46.309 40.1298 42.2343 44.2045 37.2254 44.2045C32.2165 44.2045 28.1417 40.1298 28.1417 35.1209C28.1417 30.112 32.2165 26.0372 37.2254 26.0372Z" fill="#007F5F"/>
</g>
<defs>
<clipPath id="clip0_41_330">
<rect width="34.4507" height="34.4507" fill="white" transform="translate(20 22)"/>
</clipPath>
</defs>
</svg>
