<svg width="215" height="69" viewBox="0 0 215 69" fill="none" xmlns="http://www.w3.org/2000/svg">
<path d="M81.87 31.5374H78.9329V38.53H74.1917V19.0582H81.87C86.641 19.0582 89.0266 21.7419 89.0266 25.3202C89.0266 28.5406 86.8349 31.5374 81.87 31.5374ZM81.5122 27.7653C83.3908 27.7653 84.1959 26.826 84.1959 25.3202C84.1959 23.8292 83.3908 22.875 81.5122 22.875H78.9329V27.7504H81.5122V27.7653Z" fill="#1E1E1E"/>
<path d="M97.3756 22.8303C99.6717 22.8303 101.312 23.8889 102.147 25.2457V23.054H106.888V38.53H102.147V36.3383C101.282 37.695 99.6568 38.7536 97.3458 38.7536C93.5737 38.7536 90.5471 35.6524 90.5471 30.7621C90.5471 25.8718 93.5737 22.8303 97.3756 22.8303ZM98.7622 26.9602C96.988 26.9602 95.3778 28.2872 95.3778 30.7621C95.3778 33.2371 96.988 34.6088 98.7622 34.6088C100.566 34.6088 102.147 33.252 102.147 30.7771C102.147 28.3021 100.566 26.9602 98.7622 26.9602Z" fill="#1E1E1E"/>
<path d="M117.146 22.8303C121.022 22.8303 123.78 24.9624 124.571 28.6599H119.516C119.129 27.5715 118.353 26.8857 117.041 26.8857C115.357 26.8857 114.179 28.2126 114.179 30.792C114.179 33.3713 115.342 34.6982 117.041 34.6982C118.339 34.6982 119.099 34.0571 119.516 32.924H124.571C123.766 36.5023 121.022 38.7536 117.146 38.7536C112.598 38.7536 109.378 35.6972 109.378 30.792C109.393 25.9017 112.598 22.8303 117.146 22.8303Z" fill="#1E1E1E"/>
<path d="M127.105 18H131.846V29.3461L136.528 23.0543H142.373L135.932 30.8221L142.417 38.5303H136.543L131.832 32.0447V38.5303H127.09V18H127.105Z" fill="#1E1E1E"/>
<path d="M159.474 23.7698C159.503 22.7112 158.862 22.2192 158.027 22.2192C157.148 22.2192 156.477 22.7709 156.477 23.6058C156.477 24.4109 156.999 25.216 158.027 26.2895L162.769 30.9263C162.873 30.6729 163.022 30.4343 163.126 30.151L164.155 28.4066H168.896L167.569 30.822C167.048 31.9849 166.466 33.0137 165.855 33.9231L170.536 38.5301H165.02L163.216 36.7857C161.442 38.1425 159.339 38.8432 156.775 38.8432C152.257 38.8432 149.395 36.4875 149.395 32.8795C149.395 30.4939 150.677 28.4215 153.361 27.1393C152.362 25.9466 152.004 24.888 152.004 23.6505C152.004 20.9072 154.196 18.6857 158.072 18.6857C162.038 18.6857 164.006 21.101 163.917 23.7847H159.474V23.7698ZM160.308 33.9529L155.985 29.7634C154.658 30.4492 153.987 31.4332 153.987 32.5365C153.987 33.8933 155.12 35.0115 157.014 35.0115C158.281 34.9966 159.369 34.6388 160.308 33.9529Z" fill="#1E1E1E"/>
<path d="M196.3 25.2161H191.052C190.336 23.919 188.995 23.2182 187.22 23.2182C184.164 23.2182 182.151 25.3801 182.151 28.7645C182.151 32.3726 184.209 34.4748 187.608 34.4748C189.964 34.4748 191.604 33.2225 192.319 31.0308H186.296V27.542H196.613V31.9552C195.614 35.3098 192.364 38.6644 187.235 38.6644C181.406 38.6644 177.306 34.5941 177.306 28.7645C177.306 22.9349 181.376 18.8348 187.205 18.8348C191.902 18.8348 195.286 21.2203 196.3 25.2161Z" fill="#1E1E1E"/>
<path d="M206.319 38.7391C201.772 38.7391 198.328 35.6827 198.328 30.7774C198.328 25.8722 201.846 22.8158 206.364 22.8158C210.911 22.8158 214.4 25.8722 214.4 30.7774C214.4 35.6827 210.867 38.7391 206.319 38.7391ZM206.319 34.639C208.004 34.639 209.584 33.3866 209.584 30.7923C209.584 28.1534 208.034 26.9308 206.364 26.9308C204.649 26.9308 203.144 28.1534 203.144 30.7923C203.158 33.3866 204.605 34.639 206.319 34.639Z" fill="#1E1E1E"/>
<path d="M48.8314 37.7684L51.7291 47.9471L47.0019 40.7643L43.785 35.902C45.0374 33.6796 45.8846 31.2117 46.2161 28.5964C46.3511 27.7001 46.4125 26.7915 46.4125 25.8706C46.4125 14.5131 37.216 5.31655 25.8585 5.31655C22.924 5.31655 20.1368 5.93047 17.6074 7.06008L13.1135 3.36428C16.883 1.21556 21.2295 0 25.8585 0C40.1506 0 51.7291 11.5785 51.7291 25.8706C51.7414 30.168 50.6977 34.2199 48.8314 37.7684Z" fill="#007F5F"/>
<path d="M43.9077 22.9609C43.7235 23.0468 41.5748 22.9731 40.6662 23.231C39.7699 23.4888 34.6007 25.0605 33.7166 25.5884C33.4097 25.7235 30.7944 28.1915 29.6402 29.6158C29.4806 29.7508 27.3073 31.9364 27.0863 32.3661C26.8776 32.8081 24.7534 36.9951 24.4465 39.5735C24.3605 40.1752 24.3973 41.4276 24.3605 41.7345C24.3114 42.0292 23.8448 42.6431 23.1327 41.9678C22.4205 41.2925 21.426 40.298 20.898 38.5176C20.37 36.7372 18.3441 30.3156 18.2336 29.935C18.1231 29.5544 15.6551 21.5366 15.6551 21.3401C15.6551 21.1314 14.9798 17.8162 13.1012 15.5693C12.34 14.6607 11.3209 13.4819 10.3631 12.3892C8.95112 10.793 7.68645 9.36868 7.53911 9.25817C7.45316 9.19678 7.17075 8.85298 6.79012 8.3864C6.01658 7.42869 4.89925 5.91845 4.56773 5.07124C4.06432 3.81884 3.13116 2.06303 3.09432 1.9648C3.06977 1.86658 2.57863 1.09304 2.93471 0.908861C2.93471 0.908861 3.43812 0.479117 3.97837 0.786077C4.51862 1.09304 8.37404 3.22948 8.66872 3.37682C8.85289 3.46277 9.76149 4.16264 10.6701 4.9239C11.2103 5.3782 11.7506 5.85705 12.1312 6.26224C12.6224 6.77793 13.6046 7.72337 14.6237 8.66881C15.7042 9.66336 16.8461 10.6334 17.5214 11.0385C18.8107 11.8121 20.677 13.0399 23.7589 14.145C26.8407 15.2255 31.7521 16.7603 33.5693 17.4601C35.3865 18.1723 41.2924 19.8421 42.3484 20.7507C43.4043 21.6594 44.362 22.2978 43.9077 22.9609Z" fill="#007F5F"/>
<path d="M64.1916 68.145L42.2624 45.872L38.5052 42.0657L29.7998 33.2376L34.9445 28.1543L42.2992 38.2103L45.553 42.6551L64.1916 68.145Z" fill="#007F5F"/>
<path d="M52.8094 60.643L38.0385 48.6961C34.4163 50.6238 30.2662 51.7289 25.8706 51.7289C11.5785 51.7289 0 40.1503 0 25.8583C0 20.0383 1.91543 14.6604 5.16921 10.3384L8.49665 14.8937C6.49527 18.0615 5.32882 21.831 5.32882 25.846C5.32882 37.1912 14.5253 46.3878 25.8706 46.3878C28.535 46.3878 31.1012 45.8843 33.4341 44.9389C34.7356 44.4355 35.9634 43.7847 37.1176 43.0357L40.6906 47.0262L52.8094 60.643Z" fill="#007F5F"/>
</svg>
