<svg width="74" height="78" viewBox="0 0 74 78" fill="none" xmlns="http://www.w3.org/2000/svg">
<rect width="74" height="78" rx="14" fill="#007F5F" fill-opacity="0.1"/>
<g clip-path="url(#clip0_41_321)">
<path d="M45.2997 54.432H44.2904V52.2788H30.1602V54.432H29.1509C28.593 54.432 28.1416 54.8834 28.1416 55.4413C28.1416 55.9991 28.593 56.4506 29.1509 56.4506H45.2997C45.8575 56.4506 46.309 55.9991 46.309 55.4413C46.309 54.8834 45.8575 54.432 45.2997 54.432Z" fill="#007F5F"/>
<path d="M37.3682 30.0952L37.2253 29.8093L37.0883 30.0833C36.8396 30.5954 36.3361 30.6355 36.3294 30.6422L36.012 30.6895L36.2298 30.9043C36.4688 31.132 36.5865 31.4753 36.5255 31.8112L36.4752 32.1157L36.7601 31.9679C37.046 31.8191 37.3954 31.8144 37.6905 31.9679L37.9753 32.1157L37.9231 31.7993C37.8689 31.4751 37.9763 31.1448 38.2099 30.9152L38.4386 30.6895L38.1212 30.6422C37.7959 30.5929 37.5151 30.3889 37.3682 30.0952Z" fill="#007F5F"/>
<path d="M53.4414 24.0186H48.3061C48.3146 23.683 48.3276 23.3508 48.3276 23.0093C48.3276 22.4514 47.8762 22 47.3183 22H27.1324C26.5745 22 26.1231 22.4514 26.1231 23.0093C26.1231 23.3508 26.1361 23.6831 26.1445 24.0186H21.0093C20.4514 24.0186 20 24.47 20 25.0279V27.5846C20 33.2193 24.5129 37.7964 30.0751 38.0924C31.2351 39.6879 32.6164 40.8724 34.1798 41.5452C33.9504 46.1507 31.5069 49.3404 30.7165 50.2603H43.7326C42.9424 49.3468 40.4994 46.176 40.2701 41.5452C41.8339 40.8726 43.2158 39.6882 44.3759 38.0924C49.9378 37.7962 54.4507 33.2192 54.4507 27.5846V25.0279C54.4507 24.47 53.9993 24.0186 53.4414 24.0186ZM22.0186 27.5846V26.0372H26.2451C26.5462 29.8825 27.421 33.2538 28.7582 35.9087C24.9467 35.0504 22.0186 31.6518 22.0186 27.5846ZM41.2941 30.7101L40 31.9845L40.2976 33.7764C40.3608 34.1539 40.205 34.5344 39.8955 34.7581C39.585 34.9836 39.1769 35.0137 38.8369 34.838L37.2253 34.0011L35.6138 34.838C35.2728 35.0115 34.8647 34.9829 34.5553 34.7581C34.2458 34.5344 34.0901 34.154 34.1531 33.7764L34.4508 31.9845L33.1567 30.7101C32.879 30.4366 32.7897 30.0329 32.9053 29.6791C33.0236 29.3164 33.3371 29.0503 33.7155 28.9932L35.5114 28.7231L36.3226 27.0997C36.6636 26.4157 37.7873 26.4157 38.1283 27.0997L38.9395 28.7231L40.7353 28.9932C41.1138 29.0503 41.4272 29.3165 41.5455 29.6791C41.6637 30.0428 41.5661 30.442 41.2941 30.7101ZM52.4321 27.5846C52.4321 31.6516 49.504 35.0503 45.6926 35.9085C47.0297 33.2537 47.9047 29.8827 48.2056 26.0372H52.4321V27.5846Z" fill="#007F5F"/>
</g>
<defs>
<clipPath id="clip0_41_321">
<rect width="34.4507" height="34.4507" fill="white" transform="translate(20 22)"/>
</clipPath>
</defs>
</svg>
