<svg width="26" height="26" viewBox="0 0 26 26" fill="none" xmlns="http://www.w3.org/2000/svg">
<path d="M11.6172 17.1473L8.29291 13.8429C8.20001 13.75 8.15356 13.6305 8.15356 13.4846C8.15356 13.3386 8.20001 13.2192 8.29291 13.1263L9.02944 12.4096C9.12233 12.3035 9.23845 12.2504 9.3778 12.2504C9.51714 12.2504 9.63989 12.3035 9.74606 12.4096L11.9756 14.6391L16.753 9.86164C16.8592 9.75548 16.982 9.70239 17.1213 9.70239C17.2607 9.70239 17.3768 9.75548 17.4697 9.86164L18.2062 10.5783C18.2991 10.6712 18.3455 10.7906 18.3455 10.9366C18.3455 11.0826 18.2991 11.202 18.2062 11.2949L12.3339 17.1473C12.241 17.2535 12.1215 17.3066 11.9756 17.3066C11.8296 17.3066 11.7101 17.2535 11.6172 17.1473Z" fill="#36B37E"/>
</svg>
