<svg width="26" height="26" viewBox="0 0 26 26" fill="none" xmlns="http://www.w3.org/2000/svg">
<path d="M11.3984 16.8242L8.13672 13.582C8.04557 13.4909 8 13.3737 8 13.2305C8 13.0872 8.04557 12.97 8.13672 12.8789L8.85937 12.1758C8.95052 12.0716 9.06445 12.0195 9.20117 12.0195C9.33789 12.0195 9.45833 12.0716 9.5625 12.1758L11.75 14.3633L16.4375 9.67578C16.5416 9.57161 16.6621 9.51953 16.7988 9.51953C16.9355 9.51953 17.0495 9.57161 17.1406 9.67578L17.8633 10.3789C17.9544 10.47 18 10.5872 18 10.7305C18 10.8737 17.9544 10.9909 17.8633 11.082L12.1016 16.8242C12.0104 16.9284 11.8932 16.9805 11.75 16.9805C11.6068 16.9805 11.4896 16.9284 11.3984 16.8242Z" fill="#36B37E"/>
</svg>
